# Rhino

v 108.0862579345703 155.9847106933594 261.7745361328125
v 101.0624313354492 158.1605987548828 274.0971984863281
v 101.5002136230469 155.9847106933594 274.326904296875
v 103.6955642700195 155.9847106933594 270.1427917480469
v 105.8909072875977 155.9847106933594 265.9586486816406
v 107.6484680175781 158.1605987548828 261.5448303222656
v 105.453125 158.1605987548828 265.7289428710938
v 103.2577743530273 158.1605987548828 269.9130859375
v 101.5002136230469 155.9847106933594 274.326904296875
v -188.9780731201172 84.80735015869141 121.9174118041992
v -188.3360290527344 81.61627960205078 122.254280090332
v -43.41790390014648 118.8004913330078 198.2905883789062
v 101.0624313354492 158.1605987548828 274.0971984863281
v 96.90167236328125 158.1605987548828 271.9141235351562
v -46.0381965637207 121.4839782714844 196.915771484375
v -188.9780731201172 84.80735015869141 121.9174118041992
v -188.3360290527344 81.61627960205078 122.254280090332
v -182.3920288085938 84.80735015869141 109.3650283813477
v -181.7499847412109 81.61627960205078 109.7018966674805
v -185.6850433349609 84.80735015869141 115.6412200927734
v -185.0429992675781 81.61627960205078 115.9780883789062
v -182.3920288085938 84.80735015869141 109.3650283813477
v -181.7499847412109 81.61627960205078 109.7018966674805
v 108.0862579345703 155.9847106933594 261.7745361328125
v -39.45215225219727 121.4839782714844 184.3633880615234
v 103.4877166748047 158.1605987548828 259.3617248535156
v -36.83186340332031 118.8004913330078 185.7382049560547
v 107.6484680175781 158.1605987548828 261.5448303222656
v -182.3920288085938 84.80735015869141 109.3650283813477
v -188.9780731201172 84.80735015869141 121.9174118041992
v -185.6850433349609 84.80735015869141 115.6412200927734
v -39.45215225219727 121.4839782714844 184.3633880615234
v 103.4877166748047 158.1605987548828 259.3617248535156
v 100.194694519043 158.1605987548828 265.637939453125
v 96.90167236328125 158.1605987548828 271.9141235351562
v -46.0381965637207 121.4839782714844 196.915771484375
v 108.0862579345703 155.9847106933594 261.7745361328125
v -181.7499847412109 81.61627960205078 109.7018966674805
v 101.5002136230469 155.9847106933594 274.326904296875
v -188.3360290527344 81.61627960205078 122.254280090332
v 105.8909072875977 155.9847106933594 265.9586486816406
v 103.6955642700195 155.9847106933594 270.1427917480469
v -43.41790390014648 118.8004913330078 198.2905883789062
v -185.0429992675781 81.61627960205078 115.9780883789062
v -36.83186340332031 118.8004913330078 185.7382049560547
v 101.0624313354492 158.1605987548828 274.0971984863281
v 103.4877166748047 158.1605987548828 259.3617248535156
v 107.6484680175781 158.1605987548828 261.5448303222656
v 105.453125 158.1605987548828 265.7289428710938
v 103.2577743530273 158.1605987548828 269.9130859375
v 96.90167236328125 158.1605987548828 271.9141235351562
v 100.194694519043 158.1605987548828 265.637939453125
vt 0 0
vt 0.006478420458734035 0.04115603864192963
vt 0 0.04115603864192963
vt 0 0.02743735909461975
vt 0 0.01371867954730988
vt 0.006478420458734035 0
vt 0.006478420458734035 0.01371867954730988
vt 0.006478420458734035 0.02743735909461975
vt 0.01597943529486656 0
vt 0.02401560731232166 0.9730547070503235
vt 0.01597943529486656 0.9730547070503235
vt 0.01597943529486656 0.4865273535251617
vt 0.02145902812480927 0
vt 0.02401560731232166 0.01328298822045326
vt 0.02401560731232166 0.493168830871582
vt 0.01451459154486656 0
vt 0.006478420458734035 0
vt 0.01451459154486656 0.04115603864192963
vt 0.006478420458734035 0.04115603864192963
vt 0.01451459154486656 0.02057801932096481
vt 0.006478420458734035 0.02057801932096481
vt 0.02548045106232166 0.8891481161117554
vt 0.02548045106232166 0.8986491560935974
vt 0.99853515625 0.8986491560935974
vt 0.505366325378418 0.8891481161117554
vt 0.9852521419525146 0.8891481161117554
vt 0.5120078325271606 0.8986491560935974
vt 0.99853515625 0.8921707272529602
vt 0.02548045106232166 0
vt 0.02548045106232166 0.04115603864192963
vt 0.02548045106232166 0.02057801932096481
vt 0.5060887336730957 0
vt 0.9866970181465149 0
vt 0.9866970181465149 0.02057801932096481
vt 0.9866970181465149 0.04115603864192963
vt 0.5060887336730957 0.04115603864192963
vt 0.99853515625 0.3698078095912933
vt 0.02548045106232166 0.3698078095912933
vt 0.99853515625 0.4109638333320618
vt 0.02548045106232166 0.4109638333320618
vt 0.99853515625 0.383526474237442
vt 0.99853515625 0.3972451686859131
vt 0.5120078325271606 0.4109638333320618
vt 0.02548045106232166 0.3903858065605164
vt 0.5120078325271606 0.3698078095912933
vt 0.02548045106232166 0.7562571167945862
vt 0.07120417803525925 0.7396156191825867
vt 0.06730104982852936 0.7539925575256348
vt 0.05335168167948723 0.7547351717948914
vt 0.03941141068935394 0.7554899454116821
vt 0.02911246195435524 0.741518497467041
vt 0.05014952644705772 0.7405553460121155
vn 0.8635039925575256 0.2215645611286163 0.4530673027038574
vn 0.8635039925575256 0.2215645611286163 0.4530673027038574
vn 0.8635039925575256 0.2215645611286163 0.4530673027038574
vn 0.8635039925575256 0.2215645611286163 0.4530673027038574
vn 0.8635039925575256 0.2215645611286163 0.4530673027038574
vn 0.8635039925575256 0.2215645611286163 0.4530673027038574
vn 0.8635039925575256 0.2215645611286163 0.4530673027038574
vn 0.8635039925575256 0.2215645611286163 0.4530673027038574
vn -0.4646149873733521 -6.050715484207103e-15 0.8855128288269043
vn -0.4646149873733521 1.706967900361178e-15 0.8855128288269043
vn -0.4646149873733521 1.693090112553364e-15 0.8855128288269043
vn -0.4646149873733521 -1.360023205165817e-15 0.8855128288269043
vn -0.4646149873733521 -6.022959908591474e-15 0.8855128288269043
vn -0.4646149873733521 5.967448757360216e-16 0.8855128288269043
vn -0.4646149873733521 -1.512678871051776e-15 0.8855128288269043
vn -0.8635039925575256 -0.2215645611286163 -0.4530673027038574
vn -0.8635039925575256 -0.2215645611286163 -0.4530673027038574
vn -0.8635039925575256 -0.2215645611286163 -0.4530673027038574
vn -0.8635039925575256 -0.2215645611286163 -0.4530673027038574
vn -0.8635039925575256 -0.2215645611286163 -0.4530673027038574
vn -0.8635039925575256 -0.2215645611286163 -0.4530673027038574
vn 0.4646149873733521 4.454769886308441e-15 -0.8855128288269043
vn 0.4646149873733521 4.427014310692812e-15 -0.8855128288269043
vn 0.4646149873733521 4.427014310692812e-15 -0.8855128288269043
vn 0.4646149873733521 7.66053886991358e-15 -0.8855128288269043
vn 0.4646149873733521 -4.621303340002214e-15 -0.8855128288269043
vn 0.4646149873733521 6.050715484207103e-15 -0.8855128288269043
vn 0.4646149873733521 4.440892098500626e-15 -0.8855128288269043
vn -0.1961982548236847 0.975145697593689 -0.1029422134160995
vn -0.1961982548236847 0.975145697593689 -0.1029422134160995
vn -0.1961982548236847 0.975145697593689 -0.1029422134160995
vn -0.1961982548236847 0.975145697593689 -0.1029422134160995
vn -0.1961982548236847 0.975145697593689 -0.1029422134160995
vn -0.1961982548236847 0.975145697593689 -0.1029422134160995
vn -0.1961982548236847 0.975145697593689 -0.1029422134160995
vn -0.1961982548236847 0.975145697593689 -0.1029422134160995
vn 0.1961982548236847 -0.975145697593689 0.1029422134160995
vn 0.1961982548236847 -0.975145697593689 0.1029422134160995
vn 0.1961982548236847 -0.975145697593689 0.1029422134160995
vn 0.1961982548236847 -0.975145697593689 0.1029422134160995
vn 0.1961982548236847 -0.975145697593689 0.1029422134160995
vn 0.1961982548236847 -0.975145697593689 0.1029422134160995
vn 0.1961982548236847 -0.975145697593689 0.1029422134160995
vn 0.1961982548236847 -0.975145697593689 0.1029422134160995
vn 0.1961982548236847 -0.975145697593689 0.1029422134160995
vn 1.449801444855162e-17 1 -6.23945380073403e-17
vn 1.347273731418194e-17 1 -6.351520230122714e-17
vn -1.348277763245711e-17 1 6.306602999372104e-17
vn 0 1 0
vn -2.830921090833311e-17 1 1.252441577004828e-16
vn -2.900212356385653e-17 1 1.257155315356298e-16
vn 1.398106461601415e-17 1 -6.319060339397153e-17
f 6/6/6 7/7/7 5/5/5 1/1/1
f 4/4/4 5/5/5 7/7/7 8/8/8
f 8/8/8 2/2/2 3/3/3 4/4/4
f 12/12/12 9/9/9 13/13/13
f 14/14/14 15/15/15 13/13/13
f 13/13/13 10/10/10 11/11/11
f 11/11/11 12/12/12 13/13/13
f 10/10/10 13/13/13 15/15/15
f 17/17/17 16/16/16 20/20/20 21/21/21
f 18/18/18 19/19/19 21/21/21 20/20/20
f 28/28/28 23/23/23 22/22/22
f 25/25/25 28/28/28 22/22/22
f 23/23/23 28/28/28 27/27/27
f 28/28/28 24/24/24 27/27/27
f 26/26/26 28/28/28 25/25/25
f 32/32/32 34/34/34 33/33/33
f 32/32/32 29/29/29 31/31/31
f 31/31/31 34/34/34 32/32/32
f 34/34/34 31/31/31 36/36/36
f 36/36/36 31/31/31 30/30/30
f 35/35/35 34/34/34 36/36/36
f 45/45/45 37/37/37 41/41/41
f 45/45/45 44/44/44 38/38/38
f 44/44/44 45/45/45 41/41/41
f 43/43/43 42/42/42 39/39/39
f 40/40/40 44/44/44 43/43/43
f 42/42/42 43/43/43 44/44/44
f 41/41/41 42/42/42 44/44/44
f 50/50/50 51/51/51 46/46/46
f 49/49/49 51/51/51 50/50/50
f 48/48/48 47/47/47 52/52/52
f 52/52/52 49/49/49 48/48/48
f 51/51/51 49/49/49 52/52/52
