# Rhino

v -239.9696807861328 82.22710418701172 -9.855208396911621
v -138.7897186279297 5.684341886080801e-14 -241.1410980224609
v -139.5395965576172 -5.35313892364502 -239.4269561767578
v -139.1646575927734 -2.67656946182251 -240.2840270996094
v -189.754638671875 38.43698501586914 -124.6410827636719
v -239.6082458496094 84.80735015869141 -10.68143653869629
v -236.0400695800781 84.80735015869141 -18.83785438537598
v -203.623291015625 56.53823471069336 -92.93893432617188
v -171.2064971923828 28.26911735534668 -167.0400085449219
v -138.7897186279297 5.684341886080801e-14 -241.1410980224609
v -139.5395965576172 -5.35313892364502 -239.4269561767578
v -126.5279541015625 5.684341886080801e-14 -235.7769775390625
v -127.27783203125 -5.35313892364502 -234.0628356933594
v -139.1646575927734 -2.67656946182251 -240.2840270996094
v -134.7024688720703 5.684341886080801e-14 -239.3530578613281
v -130.6152038574219 5.684341886080801e-14 -237.5650177001953
v -126.9028930664062 -2.67656946182251 -234.9199066162109
v -131.3650817871094 -5.35313892364502 -235.8508758544922
v -135.4523468017578 -5.35313892364502 -237.638916015625
v -126.5279541015625 5.684341886080801e-14 -235.7769775390625
v -127.27783203125 -5.35313892364502 -234.0628356933594
v -227.7079162597656 82.22710418701172 -4.491090774536133
v -126.9028930664062 -2.67656946182251 -234.9199066162109
v -158.9447326660156 28.26911735534668 -161.6759033203125
v -191.3615264892578 56.53823471069336 -87.57481384277344
v -223.7783050537109 84.80735015869141 -13.47373676300049
v -177.4928741455078 38.43698501586914 -119.2769622802734
v -227.3464813232422 84.80735015869141 -5.317318916320801
v -227.7079162597656 82.22710418701172 -4.491090774536133
v -239.6082458496094 84.80735015869141 -10.68143653869629
v -239.9696807861328 82.22710418701172 -9.855208396911621
v -233.8388061523438 82.22710418701172 -7.173150062561035
v -227.3464813232422 84.80735015869141 -5.317318916320801
v -233.4773559570312 84.80735015869141 -7.999377727508545
v -223.7783050537109 84.80735015869141 -13.47373676300049
v -138.7897186279297 5.684341886080801e-14 -241.1410980224609
v -126.5279541015625 5.684341886080801e-14 -235.7769775390625
v -134.7024688720703 5.684341886080801e-14 -239.3530578613281
v -130.6152038574219 5.684341886080801e-14 -237.5650177001953
v -158.9447326660156 28.26911735534668 -161.6759033203125
v -191.3615264892578 56.53823471069336 -87.57481384277344
v -236.0400695800781 84.80735015869141 -18.83785438537598
v -203.623291015625 56.53823471069336 -92.93893432617188
v -171.2064971923828 28.26911735534668 -167.0400085449219
v -239.9696807861328 82.22710418701172 -9.855208396911621
v -227.7079162597656 82.22710418701172 -4.491090774536133
v -139.5395965576172 -5.35313892364502 -239.4269561767578
v -127.27783203125 -5.35313892364502 -234.0628356933594
v -189.754638671875 38.43698501586914 -124.6410827636719
v -135.4523468017578 -5.35313892364502 -237.638916015625
v -131.3650817871094 -5.35313892364502 -235.8508758544922
v -177.4928741455078 38.43698501586914 -119.2769622802734
v -233.8388061523438 82.22710418701172 -7.173150062561035
v -239.6082458496094 84.80735015869141 -10.68143653869629
v -236.0400695800781 84.80735015869141 -18.83785438537598
v -223.7783050537109 84.80735015869141 -13.47373676300049
v -227.3464813232422 84.80735015869141 -5.317318916320801
v -233.4773559570312 84.80735015869141 -7.999377727508545
vt 0.04800030961632729 0.5827755331993103
vt 0.99853515625 0.5624378323554993
vt 0.99853515625 0.5827755331993103
vt 0.99853515625 0.5726066827774048
vt 0.5232677459716797 0.5827755331993103
vt 0.04800030961632729 0.5729725956916809
vt 0.07809533178806305 0.5624378323554993
vt 0.3849085867404938 0.5624378323554993
vt 0.6917219161987305 0.5624378323554993
vt 0.04800030961632729 0.7282425761222839
vt 0.04800030961632729 0.748580276966095
vt 0.09600061923265457 0.7282425761222839
vt 0.09600061923265457 0.748580276966095
vt 0.04800030961632729 0.7384114265441895
vt 0.06400041282176971 0.7282425761222839
vt 0.08000051975250244 0.7282425761222839
vt 0.09600061923265457 0.7384114265441895
vt 0.08000051975250244 0.748580276966095
vt 0.06400041282176971 0.748580276966095
vt 0.04800030961632729 0.8401211500167847
vt 0.04800030961632729 0.8604588508605957
vt 0.99853515625 0.8604588508605957
vt 0.04800030961632729 0.8502900004386902
vt 0.3548136055469513 0.8401211500167847
vt 0.6616268754005432 0.8401211500167847
vt 0.9684401154518127 0.8401211500167847
vt 0.5232677459716797 0.8604588508605957
vt 0.99853515625 0.8506559133529663
vt 0.04800030961632729 0.6841192841529846
vt 0.09600061923265457 0.6743163466453552
vt 0.09600061923265457 0.6841192841529846
vt 0.07200046628713608 0.6841192841529846
vt 0.04800030961632729 0.6743163466453552
vt 0.07200046628713608 0.6743163466453552
vt 0.04800030961632729 0.04800030961632729
vt 0.9698585867881775 0
vt 0.9698585867881775 0.04800030961632729
vt 0.9698585867881775 0.01600010320544243
vt 0.9698585867881775 0.03200020641088486
vt 0.6625725030899048 0.04800030961632729
vt 0.3552864193916321 0.04800030961632729
vt 0.04800030961632729 0
vt 0.3552864193916321 0
vt 0.6625725030899048 0
vt 0.04653546586632729 0
vt 0 0
vt 0.04653546586632729 0.9505348205566406
vt 0 0.9505348205566406
vt 0.04653546586632729 0.4752674102783203
vt 0.03102364391088486 0.9505348205566406
vt 0.01551182102411985 0.9505348205566406
vt 0 0.4752674102783203
vt 0.02326773293316364 0
vt 0.07844454050064087 0.3182933628559113
vt 0.04800030961632729 0.2773513495922089
vt 0.0943257212638855 0.2640515267848969
vt 0.1217497661709785 0.3082890212535858
vt 0.09989126771688461 0.313515841960907
vn -0.9161683917045593 -3.649858193455202e-15 -0.4007935523986816
vn -0.9161683917045593 -3.178013407989511e-15 -0.4007935523986816
vn -0.9161683917045593 -3.191891195797325e-15 -0.4007935523986816
vn -0.9161683917045593 -3.219646771412954e-15 -0.4007935523986816
vn -0.9161683917045593 -3.386180225106727e-15 -0.4007935523986816
vn -0.9161683917045593 -3.649858193455202e-15 -0.4007935523986816
vn -0.9161683917045593 -1.609823385706477e-15 -0.4007935523986816
vn -0.9161683917045593 3.608224830031759e-16 -0.4007935523986816
vn -0.9161683917045593 -1.817990202823694e-15 -0.4007935523986816
vn 0.378349781036377 -0.3299406170845032 -0.8648645281791687
vn 0.378349781036377 -0.3299406170845032 -0.8648645281791687
vn 0.378349781036377 -0.3299406170845032 -0.8648645281791687
vn 0.378349781036377 -0.3299406170845032 -0.8648645281791687
vn 0.378349781036377 -0.3299406170845032 -0.8648645281791687
vn 0.378349781036377 -0.3299406170845032 -0.8648645281791687
vn 0.378349781036377 -0.3299406170845032 -0.8648645281791687
vn 0.378349781036377 -0.3299406170845032 -0.8648645281791687
vn 0.378349781036377 -0.3299406170845032 -0.8648645281791687
vn 0.378349781036377 -0.3299406170845032 -0.8648645281791687
vn 0.9161683917045593 3.150257832373882e-15 0.4007935523986816
vn 0.9161683917045593 3.164135620181696e-15 0.4007935523986816
vn 0.9161683917045593 -2.456368441983159e-15 0.4007935523986816
vn 0.9161683917045593 3.164135620181696e-15 0.4007935523986816
vn 0.9161683917045593 1.221245327087672e-15 0.4007935523986816
vn 0.9161683917045593 1.262878690511116e-15 0.4007935523986816
vn 0.9161683917045593 -2.42861286636753e-15 0.4007935523986816
vn 0.9161683917045593 -1.193489751472043e-15 0.4007935523986816
vn 0.9161683917045593 -2.456368441983159e-15 0.4007935523986816
vn -0.378349781036377 0.3299406170845032 0.8648645281791687
vn -0.378349781036377 0.3299406170845032 0.8648645281791687
vn -0.378349781036377 0.3299406170845032 0.8648645281791687
vn -0.378349781036377 0.3299406170845032 0.8648645281791687
vn -0.378349781036377 0.3299406170845032 0.8648645281791687
vn -0.378349781036377 0.3299406170845032 0.8648645281791687
vn 0.1322380751371384 0.9440016746520996 -0.3022811710834503
vn 0.1322380751371384 0.9440016746520996 -0.3022811710834503
vn 0.1322380751371384 0.9440016746520996 -0.3022811710834503
vn 0.1322380751371384 0.9440016746520996 -0.3022811710834503
vn 0.1322380751371384 0.9440016746520996 -0.3022811710834503
vn 0.1322380751371384 0.9440016746520996 -0.3022811710834503
vn 0.1322380751371384 0.9440016746520996 -0.3022811710834503
vn 0.1322380751371384 0.9440016746520996 -0.3022811710834503
vn 0.1322380751371384 0.9440016746520996 -0.3022811710834503
vn 0.1322380751371384 0.9440016746520996 -0.3022811710834503
vn -0.1322380751371384 -0.9440016746520996 0.3022811710834503
vn -0.1322380751371384 -0.9440016746520996 0.3022811710834503
vn -0.1322380751371384 -0.9440016746520996 0.3022811710834503
vn -0.1322380751371384 -0.9440016746520996 0.3022811710834503
vn -0.1322380751371384 -0.9440016746520996 0.3022811710834503
vn -0.1322380751371384 -0.9440016746520996 0.3022811710834503
vn -0.1322380751371384 -0.9440016746520996 0.3022811710834503
vn -0.1322380751371384 -0.9440016746520996 0.3022811710834503
vn -0.1322380751371384 -0.9440016746520996 0.3022811710834503
vn -3.327133505414071e-17 1 -2.962049864351055e-16
vn 8.83194471221036e-18 1 -1.915923940426999e-16
vn 4.43168762969083e-17 1 -1.041991873745862e-16
vn 6.397987266469003e-17 1 -2.766849798167321e-16
vn -1.429423519592673e-17 1 -2.405222316226898e-16
f 6/6/6 7/7/7 8/8/8
f 6/6/6 5/5/5 1/1/1
f 4/4/4 6/6/6 8/8/8
f 4/4/4 9/9/9 2/2/2
f 3/3/3 5/5/5 4/4/4
f 4/4/4 5/5/5 6/6/6
f 9/9/9 4/4/4 8/8/8
f 14/14/14 10/10/10 15/15/15
f 11/11/11 14/14/14 19/19/19
f 15/15/15 19/19/19 14/14/14
f 19/19/19 15/15/15 16/16/16 18/18/18
f 17/17/17 16/16/16 12/12/12
f 13/13/13 18/18/18 17/17/17
f 16/16/16 17/17/17 18/18/18
f 23/23/23 20/20/20 24/24/24
f 23/23/23 27/27/27 21/21/21
f 25/25/25 23/23/23 24/24/24
f 28/28/28 25/25/25 26/26/26
f 22/22/22 27/27/27 28/28/28
f 28/28/28 27/27/27 23/23/23
f 25/25/25 28/28/28 23/23/23
f 29/29/29 33/33/33 34/34/34 32/32/32
f 30/30/30 31/31/31 32/32/32 34/34/34
f 42/42/42 35/35/35 41/41/41 43/43/43
f 43/43/43 41/41/41 40/40/40
f 40/40/40 39/39/39 43/43/43
f 38/38/38 36/36/36 44/44/44
f 38/38/38 43/43/43 39/39/39
f 39/39/39 40/40/40 37/37/37
f 38/38/38 44/44/44 43/43/43
f 53/53/53 45/45/45 49/49/49
f 53/53/53 52/52/52 46/46/46
f 50/50/50 53/53/53 49/49/49
f 50/50/50 51/51/51 53/53/53
f 48/48/48 52/52/52 51/51/51
f 51/51/51 52/52/52 53/53/53
f 47/47/47 50/50/50 49/49/49
f 58/58/58 55/55/55 54/54/54
f 58/58/58 57/57/57 56/56/56
f 55/55/55 58/58/58 56/56/56
