# Rhino

v -103.1306381225586 0 -6.429878234863281
v -176.2767791748047 51.26175308227539 -7.443145275115967
v -249.4229125976562 102.5235061645508 -8.456413269042969
v -101.1619033813477 0 -31.53129386901855
v -175.2924041748047 51.26175308227539 -31.76652145385742
v -249.4229125976562 102.5235061645508 -32.00174713134766
vt 0 0
vt 0 0.5
vt 0 1
vt 1 0
vt 1 0.5
vt 1 1
vn 0.57291179895401 0.8183843493461609 0.04493426159024239
vn 0.5735387206077576 0.8188495635986328 0.0232111643999815
vn 0.5739089846611023 0.8189190626144409 1.090180107510752e-15
vn 0.568104088306427 0.8217496275901794 0.04455718398094177
vn 0.5685646533966064 0.8223167061805725 0.02300986275076866
vn 0.5687646269798279 0.8225003480911255 1.080407994277397e-15
f 5/5/5 2/2/2 1/1/1 4/4/4
f 6/6/6 3/3/3 2/2/2 5/5/5
