# Rhino

v -0.4351484179496765 0.6842702031135559 -0.4763754606246948
v 0.01452696416527033 0.6842702031135559 -0.4708047807216644
v 0.464202344417572 0.6842702031135559 -0.465234100818634
v -0.4260333180427551 0.6842702031135559 -0.008649980649352074
v 0.02542129717767239 0.6842702031135559 0.0003744525020010769
v 0.476875901222229 0.6842702031135559 0.009398886002600193
v -0.4169181883335114 0.6842702031135559 0.4590754806995392
v 0.03631563112139702 0.6842702031135559 0.4715536832809448
v 0.489549458026886 0.6842702031135559 0.4840318858623505
v 0.02318252995610237 0.6842702031135559 0.941891610622406
v 0.2999975383281708 0.6842702031135559 0.8519489765167236
v 0.5768125057220459 0.6842702031135559 0.7620063424110413
v 0.7478936314582825 0.6842702031135559 0.5265334248542786
v 0.9189746975898743 0.6842702031135559 0.2910605072975159
v 0.9189746975898743 0.6842702031135559 1.110223024625157e-16
v 0.9189746975898743 0.6842702031135559 -0.2910605072975159
v 0.7478936314582825 0.6842702031135559 -0.5265334248542786
v 0.5768125057220459 0.6842702031135559 -0.7620063424110413
v 0.2999975383281708 0.6842702031135559 -0.8519489765167236
v 0.02318252995610237 0.6842702031135559 -0.941891610622406
v -0.2536324858665466 0.6842702031135559 -0.8519489765167236
v -0.5304474830627441 0.6842702031135559 -0.7620063424110413
v -0.7015285491943359 0.6842702031135559 -0.5265334248542786
v -0.8726096153259277 0.6842702031135559 -0.2910605072975159
v -0.8726096153259277 0.6842702031135559 -5.551115123125783e-17
v -0.8726096153259277 0.6842702031135559 0.2910605072975159
v -0.7015285491943359 0.6842702031135559 0.5265334248542786
v -0.5304474830627441 0.6842702031135559 0.7620063424110413
v -0.2536324858665466 0.6842702031135559 0.8519489765167236
vt 0.25 0.25
vt 0.25 0.5
vt 0.25 0.75
vt 0.5 0.25
vt 0.5 0.5
vt 0.5 0.75
vt 0.75 0.25
vt 0.75 0.5
vt 0.75 0.75
vt 1 0.486798495054245
vt 0.9473053812980652 0.640267550945282
vt 0.8950735926628113 0.7939767837524414
vt 0.7685781717300415 0.8919395804405212
vt 0.6427906155586243 0.9902697205543518
vt 0.4904568195343018 0.9951238632202148
vt 0.3381654322147369 1
vt 0.2160059809684753 0.9087635278701782
vt 0.09320136159658432 0.8171923160552979
vt 0.04680829122662544 0.664159893989563
vt 0 0.5109120607376099
vt 0.0486273318529129 0.355332612991333
vt 0.09770054370164871 0.1999844908714294
vt 0.2248392254114151 0.1023554429411888
vt 0.3527107834815979 0.005106659606099129
vt 0.5094670653343201 0.002547211945056915
vt 0.6662468910217285 0
vt 0.7904520630836487 0.09229792654514313
vt 0.9139896035194397 0.1842494606971741
vt 0.957183301448822 0.3356217741966248
vn 9.241356153731045e-20 1 -7.45980841312066e-18
vn 9.174030114217764e-20 1 -7.405460992514701e-18
vn -9.10767730439394e-20 1 7.351899393490667e-18
vn 1.491412848287703e-19 1 -7.460913526419031e-18
vn 1.480588285243652e-19 1 -7.406762974798859e-18
vn -1.469919723293249e-19 1 7.353392454496325e-18
vn 2.054402442195921e-19 1 -7.462011195091889e-18
vn 2.039547700111147e-19 1 -7.408055030915667e-18
vn -2.024906215528046e-19 1 7.35487476215402e-18
vn -2.595315878024806e-19 1 7.41215784675393e-18
vn 2.467755838775121e-19 1 -7.379220341942681e-18
vn 2.34211873595568e-19 1 -7.346472261491707e-18
vn -2.057599624510409e-19 1 7.325136791952127e-18
vn 1.775147301373785e-19 1 -7.303768235188044e-18
vn 1.438487635498058e-19 1 -7.301740815506677e-18
vn 1.10048871251182e-19 1 -7.299700988116121e-18
vn 0 1 0
vn 5.568389890660037e-20 1 -7.336661899426828e-18
vn 4.54338127979671e-20 1 -7.369034439879703e-18
vn -3.498320001427507e-20 1 7.401785829053128e-18
vn 4.62613165279469e-20 1 -7.435848299497449e-18
vn 0 1 0
vn 0 1 0
vn 1.166089434213074e-19 1 -7.514198019937859e-18
vn 7.619178070566984e-20 1 -3.757666042278835e-18
vn 0 1 0
vn 2.154993808536964e-19 1 -7.496608851392532e-18
vn 0 1 0
vn 2.511510849745821e-19 1 -7.44440217421186e-18
f 5/5/5 2/2/2 1/1/1 4/4/4
f 6/6/6 3/3/3 2/2/2 5/5/5
f 8/8/8 5/5/5 4/4/4 7/7/7
f 9/9/9 6/6/6 5/5/5 8/8/8
f 22/22/22 1/1/1 21/21/21
f 23/23/23 1/1/1 22/22/22
f 4/4/4 1/1/1 24/24/24
f 23/23/23 24/24/24 1/1/1
f 4/4/4 24/24/24 25/25/25
f 21/21/21 1/1/1 2/2/2
f 20/20/20 21/21/21 2/2/2
f 19/19/19 20/20/20 2/2/2
f 3/3/3 18/18/18 19/19/19
f 16/16/16 17/17/17 3/3/3
f 18/18/18 3/3/3 17/17/17
f 16/16/16 6/6/6 15/15/15
f 3/3/3 6/6/6 16/16/16
f 19/19/19 2/2/2 3/3/3
f 4/4/4 26/26/26 7/7/7
f 27/27/27 7/7/7 26/26/26
f 7/7/7 28/28/28 29/29/29
f 7/7/7 29/29/29 8/8/8
f 28/28/28 7/7/7 27/27/27
f 10/10/10 8/8/8 29/29/29
f 9/9/9 14/14/14 6/6/6
f 15/15/15 6/6/6 14/14/14
f 12/12/12 9/9/9 11/11/11
f 8/8/8 11/11/11 9/9/9
f 9/9/9 12/12/12 13/13/13
f 14/14/14 9/9/9 13/13/13
f 11/11/11 8/8/8 10/10/10
f 26/26/26 4/4/4 25/25/25
v 1.198752999305725 0 1.6180340051651
v 0.610967755317688 2.220446049250313e-16 1.809016942977905
v 0.02318252995610237 0 2
v 0.5768125057220459 0.6842702031135559 0.7620063424110413
v 0.8877828121185303 0.342135101556778 1.190020203590393
v 0.02318252995610237 0.342135101556778 1.470945835113525
v 0.02318252995610237 0.6842702031135559 0.941891610622406
vt 0 0
vt 0.5 0
vt 1 0
vt 0.2645270824432373 1
vt 0.1322635412216187 0.5
vt 0.8677364587783813 0.5
vt 0.7354729175567627 1
vn 0.1737584918737411 0.826937198638916 0.5347736477851868
vn 0.1737584918737411 0.826937198638916 0.5347736477851868
vn 0.1737584918737411 0.826937198638916 0.5347736477851868
vn 0.1737584918737411 0.826937198638916 0.5347736477851868
vn 0.1737584918737411 0.826937198638916 0.5347736477851868
vn 0.1737584918737411 0.826937198638916 0.5347736477851868
vn 0.1737584918737411 0.826937198638916 0.5347736477851868
f 31/31/31 30/30/30 34/34/34
f 31/31/31 34/34/34 33/33/33
f 35/35/35 32/32/32 31/31/31
f 31/31/31 36/36/36 35/35/35
f 33/33/33 36/36/36 31/31/31
v 1.92529559135437 0 0.6180340051651001
v 1.198752999305725 0 1.6180340051651
v 0.9189746975898743 0.6842702031135559 0.2910605072975159
v 1.4221351146698 0.342135101556778 0.454547256231308
v 0.8877828121185303 0.342135101556778 1.190020203590393
v 0.5768125057220459 0.6842702031135559 0.7620063424110413
vt 0 0
vt 1 0
vt 0.2645270824432373 1
vt 0.1322635412216187 0.5
vt 0.8677364587783813 0.5
vt 0.7354729175567627 1
vn 0.45490562915802 0.826937198638916 0.330508291721344
vn 0.45490562915802 0.826937198638916 0.330508291721344
vn 0.45490562915802 0.826937198638916 0.330508291721344
vn 0.45490562915802 0.826937198638916 0.330508291721344
vn 0.45490562915802 0.826937198638916 0.330508291721344
vn 0.45490562915802 0.826937198638916 0.330508291721344
f 38/38/38 37/37/37 40/40/40
f 41/41/41 40/40/40 39/39/39
f 42/42/42 41/41/41 39/39/39
f 38/38/38 40/40/40 41/41/41
v 1.92529559135437 0 -0.6180340051651001
v 1.92529559135437 0 0.6180340051651001
v 0.9189746975898743 0.6842702031135559 -0.2910605072975159
v 1.4221351146698 0.342135101556778 -0.454547256231308
v 1.4221351146698 0.342135101556778 0.454547256231308
v 0.9189746975898743 0.6842702031135559 0.2910605072975159
vt 0 0
vt 1 0
vt 0.2645270824432373 1
vt 0.1322635412216187 0.5
vt 0.8677364587783813 0.5
vt 0.7354729175567627 1
vn 0.5622943043708801 0.826937198638916 0
vn 0.5622943043708801 0.826937198638916 0
vn 0.5622943043708801 0.826937198638916 0
vn 0.5622943043708801 0.826937198638916 0
vn 0.5622943043708801 0.826937198638916 0
vn 0.5622943043708801 0.826937198638916 0
f 47/47/47 43/43/43 46/46/46
f 48/48/48 46/46/46 45/45/45
f 46/46/46 48/48/48 47/47/47
f 43/43/43 47/47/47 44/44/44
v 1.198752999305725 0 -1.6180340051651
v 1.92529559135437 0 -0.6180340051651001
v 0.5768125057220459 0.6842702031135559 -0.7620063424110413
v 0.8877828121185303 0.342135101556778 -1.190020203590393
v 1.4221351146698 0.342135101556778 -0.454547256231308
v 0.9189746975898743 0.6842702031135559 -0.2910605072975159
vt 0 0
vt 1 0
vt 0.2645270824432373 1
vt 0.1322635412216187 0.5
vt 0.8677364587783813 0.5
vt 0.7354729175567627 1
vn 0.45490562915802 0.826937198638916 -0.330508291721344
vn 0.45490562915802 0.826937198638916 -0.330508291721344
vn 0.45490562915802 0.826937198638916 -0.330508291721344
vn 0.45490562915802 0.826937198638916 -0.330508291721344
vn 0.45490562915802 0.826937198638916 -0.330508291721344
vn 0.45490562915802 0.826937198638916 -0.330508291721344
f 50/50/50 49/49/49 52/52/52
f 54/54/54 52/52/52 51/51/51
f 54/54/54 53/53/53 52/52/52
f 50/50/50 52/52/52 53/53/53
v 0.02318252995610237 0 -2
v 0.610967755317688 1.110223024625157e-16 -1.809016942977905
v 1.198752999305725 0 -1.6180340051651
v 0.02318252995610237 0.6842702031135559 -0.941891610622406
v 0.02318252995610237 0.4561801254749298 -1.294594407081604
v 0.02318252995610237 0.2280900627374649 -1.647297263145447
v 0.9914395213127136 0.2280900627374649 -1.332691431045532
v 0.7841260433197021 0.4561801254749298 -1.047348856925964
v 0.5768125057220459 0.6842702031135559 -0.7620063424110413
v 0.2999975383281708 0.6842702031135559 -0.8519489765167236
vt 0 0
vt 0.5 0
vt 1 0
vt 0.2645270824432373 1
vt 0.176351398229599 0.6666666865348816
vt 0.0881756991147995 0.3333333432674408
vt 0.9118242859840393 0.3333333432674408
vt 0.8236486315727234 0.6666666865348816
vt 0.7354729175567627 1
vt 0.5 1
vn 0.1737584918737411 0.826937198638916 -0.5347736477851868
vn 0.1737584918737411 0.826937198638916 -0.5347736477851868
vn 0.1737584918737411 0.826937198638916 -0.5347736477851868
vn 0.1737584918737411 0.826937198638916 -0.5347736477851868
vn 0.1737584918737411 0.826937198638916 -0.5347736477851868
vn 0.1737584918737411 0.826937198638916 -0.5347736477851868
vn 0.1737584918737411 0.826937198638916 -0.5347736477851868
vn 0.1737584918737411 0.826937198638916 -0.5347736477851868
vn 0.1737584918737411 0.826937198638916 -0.5347736477851868
vn 0.1737584918737411 0.826937198638916 -0.5347736477851868
f 60/60/60 59/59/59 56/56/56
f 58/58/58 64/64/64 59/59/59
f 59/59/59 64/64/64 62/62/62
f 56/56/56 55/55/55 60/60/60
f 61/61/61 57/57/57 56/56/56
f 64/64/64 63/63/63 62/62/62
f 61/61/61 56/56/56 62/62/62
f 56/56/56 59/59/59 62/62/62
v -1.152387976646423 0 -1.6180340051651
v -0.5646027326583862 5.551115123125783e-17 -1.809016942977905
v 0.02318252995610237 0 -2
v -0.5304474830627441 0.6842702031135559 -0.7620063424110413
v -0.8414177298545837 0.342135101556778 -1.190020203590393
v 0.02318252995610237 0.342135101556778 -1.470945835113525
v 0.02318252995610237 0.6842702031135559 -0.941891610622406
vt 0 0
vt 0.5 0
vt 1 0
vt 0.2645270824432373 1
vt 0.1322635412216187 0.5
vt 0.8677364587783813 0.5
vt 0.7354729175567627 1
vn -0.1737584918737411 0.826937198638916 -0.5347736477851868
vn -0.1737584918737411 0.826937198638916 -0.5347736477851868
vn -0.1737584918737411 0.826937198638916 -0.5347736477851868
vn -0.1737584918737411 0.826937198638916 -0.5347736477851868
vn -0.1737584918737411 0.826937198638916 -0.5347736477851868
vn -0.1737584918737411 0.826937198638916 -0.5347736477851868
vn -0.1737584918737411 0.826937198638916 -0.5347736477851868
f 66/66/66 65/65/65 69/69/69
f 66/66/66 69/69/69 68/68/68
f 70/70/70 67/67/67 66/66/66
f 66/66/66 71/71/71 70/70/70
f 68/68/68 71/71/71 66/66/66
v -1.878930449485779 0 -0.6180340051651001
v -1.152387976646423 0 -1.6180340051651
v -0.8726096153259277 0.6842702031135559 -0.2910605072975159
v -1.375770092010498 0.342135101556778 -0.454547256231308
v -0.8414177298545837 0.342135101556778 -1.190020203590393
v -0.5304474830627441 0.6842702031135559 -0.7620063424110413
vt 0 0
vt 1 0
vt 0.2645270824432373 1
vt 0.1322635412216187 0.5
vt 0.8677364587783813 0.5
vt 0.7354729175567627 1
vn -0.45490562915802 0.826937198638916 -0.330508291721344
vn -0.45490562915802 0.826937198638916 -0.330508291721344
vn -0.45490562915802 0.826937198638916 -0.330508291721344
vn -0.45490562915802 0.826937198638916 -0.330508291721344
vn -0.45490562915802 0.826937198638916 -0.330508291721344
vn -0.45490562915802 0.826937198638916 -0.330508291721344
f 73/73/73 72/72/72 75/75/75
f 76/76/76 75/75/75 74/74/74
f 77/77/77 76/76/76 74/74/74
f 73/73/73 75/75/75 76/76/76
v -1.878930449485779 0 0.6180340051651001
v -1.878930449485779 0 -0.6180340051651001
v -0.8726096153259277 0.6842702031135559 0.2910605072975159
v -1.375770092010498 0.342135101556778 0.454547256231308
v -1.375770092010498 0.342135101556778 -0.454547256231308
v -0.8726096153259277 0.6842702031135559 -0.2910605072975159
vt 0 0
vt 1 0
vt 0.2645270824432373 1
vt 0.1322635412216187 0.5
vt 0.8677364587783813 0.5
vt 0.7354729175567627 1
vn -0.5622943043708801 0.826937198638916 0
vn -0.5622943043708801 0.826937198638916 0
vn -0.5622943043708801 0.826937198638916 0
vn -0.5622943043708801 0.826937198638916 0
vn -0.5622943043708801 0.826937198638916 0
vn -0.5622943043708801 0.826937198638916 0
f 79/79/79 78/78/78 81/81/81
f 82/82/82 81/81/81 80/80/80
f 80/80/80 83/83/83 82/82/82
f 81/81/81 82/82/82 79/79/79
v -1.152387976646423 0 1.6180340051651
v -1.878930449485779 0 0.6180340051651001
v -0.5304474830627441 0.6842702031135559 0.7620063424110413
v -0.8414177298545837 0.342135101556778 1.190020203590393
v -1.375770092010498 0.342135101556778 0.454547256231308
v -0.8726096153259277 0.6842702031135559 0.2910605072975159
vt 0 0
vt 1 0
vt 0.2645270824432373 1
vt 0.1322635412216187 0.5
vt 0.8677364587783813 0.5
vt 0.7354729175567627 1
vn -0.45490562915802 0.826937198638916 0.330508291721344
vn -0.45490562915802 0.826937198638916 0.330508291721344
vn -0.45490562915802 0.826937198638916 0.330508291721344
vn -0.45490562915802 0.826937198638916 0.330508291721344
vn -0.45490562915802 0.826937198638916 0.330508291721344
vn -0.45490562915802 0.826937198638916 0.330508291721344
f 86/86/86 89/89/89 87/87/87
f 84/84/84 87/87/87 88/88/88
f 87/87/87 89/89/89 88/88/88
f 84/84/84 88/88/88 85/85/85
v 0.02318252995610237 0 2
v -0.5646027326583862 1.665334536937735e-16 1.809016942977905
v -1.152387976646423 0 1.6180340051651
v 0.02318252995610237 0.6842702031135559 0.941891610622406
v 0.02318252995610237 0.342135101556778 1.470945835113525
v -0.8414177298545837 0.342135101556778 1.190020203590393
v -0.5304474830627441 0.6842702031135559 0.7620063424110413
vt 0 0
vt 0.5 0
vt 1 0
vt 0.2645270824432373 1
vt 0.1322635412216187 0.5
vt 0.8677364587783813 0.5
vt 0.7354729175567627 1
vn -0.1737584918737411 0.826937198638916 0.5347736477851868
vn -0.1737584918737411 0.826937198638916 0.5347736477851868
vn -0.1737584918737411 0.826937198638916 0.5347736477851868
vn -0.1737584918737411 0.826937198638916 0.5347736477851868
vn -0.1737584918737411 0.826937198638916 0.5347736477851868
vn -0.1737584918737411 0.826937198638916 0.5347736477851868
vn -0.1737584918737411 0.826937198638916 0.5347736477851868
f 91/91/91 90/90/90 94/94/94
f 91/91/91 94/94/94 93/93/93
f 95/95/95 92/92/92 91/91/91
f 91/91/91 96/96/96 95/95/95
f 93/93/93 96/96/96 91/91/91
v 1.198752999305725 0 1.6180340051651
v 0.610967755317688 1.110223024625157e-16 1.809016942977905
v 0.02318252995610237 0 2
v 0.02318252995610237 -0.8978464603424072 1
v 0.02318252995610237 -1.795692920684814 0
v 0.610967755317688 -0.8978464603424072 0.80901700258255
vt 0 0
vt 0.5 0
vt 1 0
vt 0.75 0.5
vt 0.5 1
vt 0.25 0.5
vn 0.212131679058075 -0.7271557450294495 0.6528741717338562
vn 0.212131679058075 -0.7271557450294495 0.6528741717338562
vn 0.212131679058075 -0.7271557450294495 0.6528741717338562
vn 0.212131679058075 -0.7271557450294495 0.6528741717338562
vn 0.212131679058075 -0.7271557450294495 0.6528741717338562
vn 0.212131679058075 -0.7271557450294495 0.6528741717338562
f 101/101/101 102/102/102 98/98/98
f 97/97/97 98/98/98 102/102/102
f 100/100/100 98/98/98 99/99/99
f 101/101/101 98/98/98 100/100/100
v 1.92529559135437 0 0.6180340051651001
v 1.198752999305725 0 1.6180340051651
v 0.610967755317688 -0.8978464603424072 0.80901700258255
v 0.02318252995610237 -1.795692920684814 0
v 0.9742390513420105 -0.8978464603424072 0.30901700258255
vt 0 0
vt 1 0
vt 0.75 0.5
vt 0.5 1
vt 0.25 0.5
vn 0.5553679466247559 -0.7271557450294495 0.4034984409809113
vn 0.5553679466247559 -0.7271557450294495 0.4034984409809113
vn 0.5553679466247559 -0.7271557450294495 0.4034984409809113
vn 0.5553679466247559 -0.7271557450294495 0.4034984409809113
vn 0.5553679466247559 -0.7271557450294495 0.4034984409809113
f 103/103/103 104/104/104 105/105/105 107/107/107
f 107/107/107 105/105/105 106/106/106
v 1.92529559135437 0 -0.6180340051651001
v 1.92529559135437 0 0.6180340051651001
v 0.9742390513420105 -0.8978464603424072 0.30901700258255
v 0.02318252995610237 -1.795692920684814 0
v 0.9742390513420105 -0.8978464603424072 -0.30901700258255
vt 0 0
vt 1 0
vt 0.75 0.5
vt 0.5 1
vt 0.25 0.5
vn 0.6864725351333618 -0.7271557450294495 -3.04855045711144e-16
vn 0.6864725351333618 -0.7271557450294495 -3.04855045711144e-16
vn 0.6864725351333618 -0.7271557450294495 -2.466329125926396e-16
vn 0.6864725351333618 -0.7271557450294495 -2.466329125926396e-16
vn 0.6864725351333618 -0.7271557450294495 -2.466329125926396e-16
f 110/110/110 112/112/112 108/108/108
f 111/111/111 112/112/112 110/110/110
f 109/109/109 110/110/110 108/108/108
v 1.198752999305725 0 -1.6180340051651
v 1.562024354934692 0 -1.1180340051651
v 1.92529559135437 0 -0.6180340051651001
v 0.9742390513420105 -0.8978464603424072 -0.30901700258255
v 0.02318252995610237 -1.795692920684814 0
v 0.610967755317688 -0.8978464603424072 -0.80901700258255
vt 0 0
vt 0.5 0
vt 1 0
vt 0.75 0.5
vt 0.5 1
vt 0.25 0.5
vn 0.5553679466247559 -0.7271557450294495 -0.4034984409809113
vn 0.5553679466247559 -0.7271557450294495 -0.4034984409809113
vn 0.5553679466247559 -0.7271557450294495 -0.4034984409809113
vn 0.5553679466247559 -0.7271557450294495 -0.4034984409809113
vn 0.5553679466247559 -0.7271557450294495 -0.4034984409809113
vn 0.5553679466247559 -0.7271557450294495 -0.4034984409809113
f 114/114/114 118/118/118 113/113/113
f 114/114/114 117/117/117 118/118/118
f 116/116/116 114/114/114 115/115/115
f 117/117/117 114/114/114 116/116/116
v 0.02318252995610237 0 -2
v 0.610967755317688 -1.110223024625157e-16 -1.809016942977905
v 1.198752999305725 0 -1.6180340051651
v 0.8068962097167969 -0.5985642671585083 -1.078689336776733
v 0.4150393605232239 -1.197128534317017 -0.5393446683883667
v 0.02318252995610237 -1.795692920684814 0
v 0.02318252995610237 -1.197128534317017 -0.6666666865348816
v 0.02318252995610237 -0.5985642671585083 -1.333333373069763
vt 0 0
vt 0.5 0
vt 1 0
vt 0.8333333134651184 0.3333333432674408
vt 0.6666666865348816 0.6666666865348816
vt 0.5 1
vt 0.3333333432674408 0.6666666865348816
vt 0.1666666716337204 0.3333333432674408
vn 0.212131679058075 -0.7271557450294495 -0.6528741717338562
vn 0.212131679058075 -0.7271557450294495 -0.6528741717338562
vn 0.212131679058075 -0.7271557450294495 -0.6528741717338562
vn 0.212131679058075 -0.7271557450294495 -0.6528741717338562
vn 0.212131679058075 -0.7271557450294495 -0.6528741717338562
vn 0.212131679058075 -0.7271557450294495 -0.6528741717338562
vn 0.212131679058075 -0.7271557450294495 -0.6528741717338562
vn 0.212131679058075 -0.7271557450294495 -0.6528741717338562
f 126/126/126 119/119/119 120/120/120
f 126/126/126 123/123/123 125/125/125
f 122/122/122 126/126/126 120/120/120
f 126/126/126 122/122/122 123/123/123
f 125/125/125 123/123/123 124/124/124
f 121/121/121 122/122/122 120/120/120
v -1.152387976646423 0 -1.6180340051651
v 0.02318252995610237 0 -2
v 0.02318252995610237 -0.8978464603424072 -1
v 0.02318252995610237 -1.795692920684814 0
v -0.5646027326583862 -0.8978464603424072 -0.80901700258255
vt 0 0
vt 1 0
vt 0.75 0.5
vt 0.5 1
vt 0.25 0.5
vn -0.212131679058075 -0.7271557450294495 -0.6528741717338562
vn -0.212131679058075 -0.7271557450294495 -0.6528741717338562
vn -0.212131679058075 -0.7271557450294495 -0.6528741717338562
vn -0.212131679058075 -0.7271557450294495 -0.6528741717338562
vn -0.212131679058075 -0.7271557450294495 -0.6528741717338562
f 128/128/128 131/131/131 127/127/127
f 130/130/130 131/131/131 129/129/129
f 128/128/128 129/129/129 131/131/131
v -1.878930449485779 0 -0.6180340051651001
v -1.152387976646423 0 -1.6180340051651
v -0.5646027326583862 -0.8978464603424072 -0.80901700258255
v 0.02318252995610237 -1.795692920684814 0
v -0.927873969078064 -0.8978464603424072 -0.30901700258255
vt 0 0
vt 1 0
vt 0.75 0.5
vt 0.5 1
vt 0.25 0.5
vn -0.5553679466247559 -0.7271557450294495 -0.4034984409809113
vn -0.5553679466247559 -0.7271557450294495 -0.4034984409809113
vn -0.5553679466247559 -0.7271557450294495 -0.4034984409809113
vn -0.5553679466247559 -0.7271557450294495 -0.4034984409809113
vn -0.5553679466247559 -0.7271557450294495 -0.4034984409809113
f 134/134/134 136/136/136 132/132/132
f 135/135/135 136/136/136 134/134/134
f 133/133/133 134/134/134 132/132/132
v -1.878930449485779 0 0.6180340051651001
v -1.878930449485779 0 -0.6180340051651001
v -0.927873969078064 -0.8978464603424072 -0.30901700258255
v 0.02318252995610237 -1.795692920684814 0
v -0.927873969078064 -0.8978464603424072 0.30901700258255
vt 0 0
vt 1 0
vt 0.75 0.5
vt 0.5 1
vt 0.25 0.5
vn -0.6864725351333618 -0.7271557450294495 0
vn -0.6864725351333618 -0.7271557450294495 0
vn -0.6864725351333618 -0.7271557450294495 0
vn -0.6864725351333618 -0.7271557450294495 0
vn -0.6864725351333618 -0.7271557450294495 0
f 137/137/137 138/138/138 139/139/139 141/141/141
f 140/140/140 141/141/141 139/139/139
v -1.152387976646423 0 1.6180340051651
v -1.878930449485779 0 0.6180340051651001
v -0.927873969078064 -0.8978464603424072 0.30901700258255
v 0.02318252995610237 -1.795692920684814 0
v -0.5646027326583862 -0.8978464603424072 0.80901700258255
vt 0 0
vt 1 0
vt 0.75 0.5
vt 0.5 1
vt 0.25 0.5
vn -0.5553679466247559 -0.7271557450294495 0.4034984409809113
vn -0.5553679466247559 -0.7271557450294495 0.4034984409809113
vn -0.5553679466247559 -0.7271557450294495 0.4034984409809113
vn -0.5553679466247559 -0.7271557450294495 0.4034984409809113
vn -0.5553679466247559 -0.7271557450294495 0.4034984409809113
f 144/144/144 146/146/146 142/142/142 143/143/143
f 146/146/146 144/144/144 145/145/145
v 0.02318252995610237 0 2
v -0.5646027326583862 -1.110223024625157e-16 1.809016942977905
v -1.152387976646423 0 1.6180340051651
v -0.7605311274528503 -0.5985642671585083 1.078689336776733
v -0.3686743080615997 -1.197128534317017 0.5393446683883667
v 0.02318252995610237 -1.795692920684814 0
v 0.02318252995610237 -1.197128534317017 0.6666666865348816
v 0.02318252995610237 -0.5985642671585083 1.333333373069763
vt 0 0
vt 0.5 0
vt 1 0
vt 0.8333333134651184 0.3333333432674408
vt 0.6666666865348816 0.6666666865348816
vt 0.5 1
vt 0.3333333432674408 0.6666666865348816
vt 0.1666666716337204 0.3333333432674408
vn -0.212131679058075 -0.7271557450294495 0.6528741717338562
vn -0.212131679058075 -0.7271557450294495 0.6528741717338562
vn -0.212131679058075 -0.7271557450294495 0.6528741717338562
vn -0.212131679058075 -0.7271557450294495 0.6528741717338562
vn -0.212131679058075 -0.7271557450294495 0.6528741717338562
vn -0.212131679058075 -0.7271557450294495 0.6528741717338562
vn -0.212131679058075 -0.7271557450294495 0.6528741717338562
vn -0.212131679058075 -0.7271557450294495 0.6528741717338562
f 151/151/151 153/153/153 154/154/154
f 151/151/151 152/152/152 153/153/153
f 148/148/148 154/154/154 147/147/147
f 150/150/150 148/148/148 149/149/149
f 150/150/150 151/151/151 154/154/154
f 148/148/148 150/150/150 154/154/154
