<?xml version="1.0" encoding="utf-8"?>
<!-- Generator: Adobe Illustrator 16.0.0, SVG Export Plug-In . SVG Version: 6.00 Build 0)  -->
<!DOCTYPE svg PUBLIC "-//W3C//DTD SVG 1.1//EN" "http://www.w3.org/Graphics/SVG/1.1/DTD/svg11.dtd">
<svg version="1.1" id="Layer_1" xmlns="http://www.w3.org/2000/svg" xmlns:xlink="http://www.w3.org/1999/xlink" x="0px" y="0px"
	 width="268.312px" height="241.804px" viewBox="0 0 268.312 241.804" enable-background="new 0 0 268.312 241.804"
	 xml:space="preserve">
<g>
	<path fill="#FFFFFF" d="M236.668,82.026c-1.394-2.771-2.376-4.54-3.2-6.383C202.124,5.236,125.908-20.281,59.192,17.306
		C15.997,41.644-8.174,96.486,2.521,145.893c11.213,51.801,54.858,91.246,105.665,95.495c19.519,1.634,26.747-1.366,26.825-11.942
		c0.123-16.372-13.141-15.104-23.544-16.437c-54.202-6.95-89.455-53.133-81.619-107.35c7.179-49.68,57.525-84.575,108.733-75.366
		c31.571,5.679,62.036,31.697,66.874,57.68c-9.772-3.28-19.85-5.472-24.317,6.736c-4.583,12.527,5.785,16.594,14.01,21.613
		c8.18,4.99,16.313,10.074,24.23,15.46c8.928,6.078,20.135,4.512,26.283-5.309c7.428-11.868,13.987-24.307,20.449-36.744
		c3.915-7.53,2.793-14.723-4.828-19.47c-7.796-4.857-14.196-1.991-19.381,4.774C240.354,77.048,238.854,79.099,236.668,82.026z"/>
	<path fill-rule="evenodd" clip-rule="evenodd" fill="#FFFFFF" d="M236.668,82.026c2.187-2.927,3.686-4.978,5.232-6.993
		c5.186-6.765,11.585-9.631,19.381-4.774c7.622,4.747,8.743,11.94,4.828,19.47c-6.461,12.437-13.021,24.875-20.449,36.744
		c-6.147,9.82-17.354,11.387-26.283,5.309c-7.917-5.386-16.05-10.47-24.23-15.46c-8.226-5.019-18.594-9.086-14.01-21.613
		c4.468-12.208,14.545-10.016,24.317-6.736c-4.838-25.983-35.303-52-66.874-57.68C87.373,21.083,37.027,55.979,29.848,105.659
		c-7.836,54.216,27.417,100.399,81.619,107.35c10.403,1.333,23.667,0.064,23.544,16.437c-0.078,10.576-7.306,13.576-26.825,11.942
		c-50.807-4.249-94.451-43.693-105.665-95.495C-8.174,96.486,15.997,41.644,59.192,17.306
		c66.715-37.587,142.932-12.07,174.276,58.337C234.292,77.486,235.274,79.255,236.668,82.026z"/>
</g>
</svg>
